<?xml version="1.0" encoding="UTF-8"?><svg id="Laag_2" xmlns="http://www.w3.org/2000/svg" viewBox="0 0 189.74 189.74"><defs><style>.cls-1{fill:#fff;}.cls-2{fill:#b56555;}</style></defs><g id="Layer_1"><circle class="cls-2" cx="94.87" cy="94.87" r="94.87"/><path class="cls-1" d="M96.78,164.75c-2,0-4-.12-5.99-.37-28.45-3.57-47.76-30.1-55.66-51.74-4.09-11.2-6.07-23.06-6.24-37.32-.1-8.41,1.06-15.2,3.55-20.74,3.19-7.12,9.91-14.57,19.35-14.08,3.56.18,6.84,1.06,9.8,2.65.61-.32,1.25-.59,1.91-.8,6.45-2.15,12.89.53,18.57,2.9,2.79,1.16,5.42,2.25,7.92,2.8,4.53.99,9.2.22,14.14-.59,1.09-.18,2.19-.36,3.28-.52,5.85-.86,14.48-1.46,21.83,3.26,3.63,2.33,6.83,5.88,9.5,10.53,2.49,4.34,5.2,10.93,3.93,17.67-.28,1.48-.75,2.91-1.39,4.26,4.15-.22,8.56.12,13.11,1.29,2.85.73,6.95,2.13,9.64,5.83,2.77,3.81,3.22,8.94,1.34,15.23-3.13,10.44-8.76,20.32-17.73,31.12-7.99,9.62-15.9,16.58-24.16,21.27-8.56,4.86-17.68,7.37-26.69,7.37ZM80.71,93.05c-.05,2.51-.13,5-.22,7.45-.39,11.09-.76,21.56,2.35,32.01,3.77,12.65,11.93,20.98,22.4,22.85,5.64-1.17,10.44-3.34,14.03-5.37,7.45-4.23,14.39-10.37,21.82-19.31,8.21-9.88,13.34-18.82,16.12-28.12,1.08-3.62,1.06-6.23-.07-7.78-.82-1.12-2.37-1.95-4.88-2.59-11.7-3.01-22.47.82-29.44,4.55-.99.53-1.98,1.09-2.98,1.65-6.62,3.73-14.13,7.95-22.94,5.57-5.83-1.58-10.38-5.68-14.39-9.3-.6-.54-1.2-1.08-1.79-1.61ZM50.98,48.98c-4.93,0-8.79,4.64-10.77,9.08-1.97,4.4-2.89,10.01-2.8,17.16.16,13.27,1.98,24.23,5.72,34.5,6.54,17.91,21.56,39.54,43.25,45.16-5.22-4.96-9.24-11.74-11.69-19.95-3.51-11.78-3.1-23.45-2.7-34.74.16-4.5.31-8.81.23-13.09-.16-.09-.32-.19-.48-.28-3.07-1.81-6.24-3.68-9.21-6.24-5.31-4.59-8.94-11.42-9.72-18.28-.53-4.66.37-9.12,2.33-12.69-1.18-.36-2.43-.57-3.77-.63-.13,0-.26,0-.39,0ZM80.54,82.23c1.49.97,2.97,2.03,4.41,3.24,1.09.92,2.17,1.89,3.25,2.87,3.62,3.27,7.05,6.36,10.91,7.4,2.97.81,5.92.27,8.91-.9-8.47-1.72-16.57-6.16-21.44-13.63-1.96-3.01-2.9-6.36-2.64-9.44.45-5.35,4.6-9.87,10.33-11.25,5.91-1.43,12.66.11,17.59,1.23,8.82,2,13.74,7.32,13.48,14.6-.08,2.35-2.03,4.18-4.4,4.1-2.35-.08-4.18-2.05-4.1-4.4.1-2.93-2.21-4.95-6.87-6-4.11-.93-9.74-2.21-13.72-1.25-1.79.43-3.68,1.74-3.84,3.69-.1,1.17.39,2.69,1.29,4.08,6.98,10.71,22.75,12.24,31.46,9.22,2.4-.83,8.09-3.37,9.14-8.97.61-3.27-.44-7.49-2.95-11.87-1.99-3.46-4.25-6.02-6.72-7.61-4.89-3.14-11.12-2.72-15.99-2-1.05.15-2.09.33-3.14.5-5.51.91-11.21,1.84-17.33.51-3.25-.71-6.36-2-9.37-3.26-3.26-1.35-6.39-2.66-9.14-2.96,8.56,10.84,10.46,25.56,10.88,32.11ZM62.2,54.45c-.86,1.95-1.23,4.37-.95,6.9.55,4.79,3.1,9.58,6.84,12.81,1.03.89,2.13,1.7,3.27,2.46-1.05-6.64-3.49-15.6-9.16-22.17Z"/></g></svg>